<?xml version="1.0" encoding="iso-8859-1"?>
<!-- Generator: Adobe Illustrator 19.0.0, SVG Export Plug-In . SVG Version: 6.00 Build 0)  -->
<svg version="1.1" id="Capa_1" xmlns="http://www.w3.org/2000/svg" xmlns:xlink="http://www.w3.org/1999/xlink" x="0px" y="0px"
	 viewBox="0 0 480 480" style="enable-background:new 0 0 480 480;" xml:space="preserve">
<linearGradient id="SVGID_1_" gradientUnits="userSpaceOnUse" x1="-46.875" y1="618.923" x2="-46.875" y2="556.355" gradientTransform="matrix(8 0 0 -8 454.9998 4941)">
	<stop  offset="0" style="stop-color:#FC5C7D"/>
	<stop  offset="0.129" style="stop-color:#F35E85"/>
	<stop  offset="0.343" style="stop-color:#D9659B"/>
	<stop  offset="0.616" style="stop-color:#B070BF"/>
	<stop  offset="0.934" style="stop-color:#777FF0"/>
	<stop  offset="1" style="stop-color:#6A82FB"/>
</linearGradient>
<path style="fill:url(#SVGID_1_);" d="M69.656,189.656L80,179.312l10.344,10.344l11.312-11.312L91.312,168l10.344-10.344
	l-11.312-11.312L80,156.688l-10.344-10.344l-11.312,11.312L68.688,168l-10.344,10.344L69.656,189.656z"/>
<g>
	
		<linearGradient id="SVGID_2_" gradientUnits="userSpaceOnUse" x1="-36.875" y1="618.923" x2="-36.875" y2="556.355" gradientTransform="matrix(8 0 0 -8 454.9998 4941)">
		<stop  offset="0" style="stop-color:#FC5C7D"/>
		<stop  offset="0.129" style="stop-color:#F35E85"/>
		<stop  offset="0.343" style="stop-color:#D9659B"/>
		<stop  offset="0.616" style="stop-color:#B070BF"/>
		<stop  offset="0.934" style="stop-color:#777FF0"/>
		<stop  offset="1" style="stop-color:#6A82FB"/>
	</linearGradient>
	<path style="fill:url(#SVGID_2_);" d="M170.344,146.344L160,156.688l-10.344-10.344l-11.312,11.312L148.688,168l-10.344,10.344
		l11.312,11.312L160,179.312l10.344,10.344l11.312-11.312L171.312,168l10.344-10.344L170.344,146.344z"/>
	
		<linearGradient id="SVGID_3_" gradientUnits="userSpaceOnUse" x1="-26.875" y1="618.923" x2="-26.875" y2="556.355" gradientTransform="matrix(8 0 0 -8 454.9998 4941)">
		<stop  offset="0" style="stop-color:#FC5C7D"/>
		<stop  offset="0.129" style="stop-color:#F35E85"/>
		<stop  offset="0.343" style="stop-color:#D9659B"/>
		<stop  offset="0.616" style="stop-color:#B070BF"/>
		<stop  offset="0.934" style="stop-color:#777FF0"/>
		<stop  offset="1" style="stop-color:#6A82FB"/>
	</linearGradient>
	<path style="fill:url(#SVGID_3_);" d="M250.344,146.344L240,156.688l-10.344-10.344l-11.312,11.312L228.688,168l-10.344,10.344
		l11.312,11.312L240,179.312l10.344,10.344l11.312-11.312L251.312,168l10.344-10.344L250.344,146.344z"/>
	
		<linearGradient id="SVGID_4_" gradientUnits="userSpaceOnUse" x1="-6.875" y1="618.923" x2="-6.875" y2="556.355" gradientTransform="matrix(8 0 0 -8 454.9998 4941)">
		<stop  offset="0" style="stop-color:#FC5C7D"/>
		<stop  offset="0.129" style="stop-color:#F35E85"/>
		<stop  offset="0.343" style="stop-color:#D9659B"/>
		<stop  offset="0.616" style="stop-color:#B070BF"/>
		<stop  offset="0.934" style="stop-color:#777FF0"/>
		<stop  offset="1" style="stop-color:#6A82FB"/>
	</linearGradient>
	<path style="fill:url(#SVGID_4_);" d="M410.344,146.344L400,156.688l-10.344-10.344l-11.312,11.312L388.688,168l-10.344,10.344
		l11.312,11.312L400,179.312l10.344,10.344l11.312-11.312L411.312,168l10.344-10.344L410.344,146.344z"/>
</g>
<linearGradient id="SVGID_5_" gradientUnits="userSpaceOnUse" x1="-46.875" y1="618.923" x2="-46.875" y2="556.355" gradientTransform="matrix(8 0 0 -8 454.9998 4941)">
	<stop  offset="0" style="stop-color:#FC5C7D"/>
	<stop  offset="0.129" style="stop-color:#F35E85"/>
	<stop  offset="0.343" style="stop-color:#D9659B"/>
	<stop  offset="0.616" style="stop-color:#B070BF"/>
	<stop  offset="0.934" style="stop-color:#777FF0"/>
	<stop  offset="1" style="stop-color:#6A82FB"/>
</linearGradient>
<path style="fill:url(#SVGID_5_);" d="M69.656,269.656L80,259.312l10.344,10.344l11.312-11.312L91.312,248l10.344-10.344
	l-11.312-11.312L80,236.688l-10.344-10.344l-11.312,11.312L68.688,248l-10.344,10.344L69.656,269.656z"/>
<g>
	
		<linearGradient id="SVGID_6_" gradientUnits="userSpaceOnUse" x1="-36.875" y1="618.923" x2="-36.875" y2="556.355" gradientTransform="matrix(8 0 0 -8 454.9998 4941)">
		<stop  offset="0" style="stop-color:#FC5C7D"/>
		<stop  offset="0.129" style="stop-color:#F35E85"/>
		<stop  offset="0.343" style="stop-color:#D9659B"/>
		<stop  offset="0.616" style="stop-color:#B070BF"/>
		<stop  offset="0.934" style="stop-color:#777FF0"/>
		<stop  offset="1" style="stop-color:#6A82FB"/>
	</linearGradient>
	<path style="fill:url(#SVGID_6_);" d="M170.344,226.344L160,236.688l-10.344-10.344l-11.312,11.312L148.688,248l-10.344,10.344
		l11.312,11.312L160,259.312l10.344,10.344l11.312-11.312L171.312,248l10.344-10.344L170.344,226.344z"/>
	
		<linearGradient id="SVGID_7_" gradientUnits="userSpaceOnUse" x1="-26.875" y1="618.923" x2="-26.875" y2="556.355" gradientTransform="matrix(8 0 0 -8 454.9998 4941)">
		<stop  offset="0" style="stop-color:#FC5C7D"/>
		<stop  offset="0.129" style="stop-color:#F35E85"/>
		<stop  offset="0.343" style="stop-color:#D9659B"/>
		<stop  offset="0.616" style="stop-color:#B070BF"/>
		<stop  offset="0.934" style="stop-color:#777FF0"/>
		<stop  offset="1" style="stop-color:#6A82FB"/>
	</linearGradient>
	<path style="fill:url(#SVGID_7_);" d="M250.344,226.344L240,236.688l-10.344-10.344l-11.312,11.312L228.688,248l-10.344,10.344
		l11.312,11.312L240,259.312l10.344,10.344l11.312-11.312L251.312,248l10.344-10.344L250.344,226.344z"/>
	
		<linearGradient id="SVGID_8_" gradientUnits="userSpaceOnUse" x1="-6.875" y1="618.923" x2="-6.875" y2="556.355" gradientTransform="matrix(8 0 0 -8 454.9998 4941)">
		<stop  offset="0" style="stop-color:#FC5C7D"/>
		<stop  offset="0.129" style="stop-color:#F35E85"/>
		<stop  offset="0.343" style="stop-color:#D9659B"/>
		<stop  offset="0.616" style="stop-color:#B070BF"/>
		<stop  offset="0.934" style="stop-color:#777FF0"/>
		<stop  offset="1" style="stop-color:#6A82FB"/>
	</linearGradient>
	<path style="fill:url(#SVGID_8_);" d="M410.344,226.344L400,236.688l-10.344-10.344l-11.312,11.312L388.688,248l-10.344,10.344
		l11.312,11.312L400,259.312l10.344,10.344l11.312-11.312L411.312,248l10.344-10.344L410.344,226.344z"/>
	
		<linearGradient id="SVGID_9_" gradientUnits="userSpaceOnUse" x1="-36.875" y1="618.923" x2="-36.875" y2="556.355" gradientTransform="matrix(8 0 0 -8 454.9998 4941)">
		<stop  offset="0" style="stop-color:#FC5C7D"/>
		<stop  offset="0.129" style="stop-color:#F35E85"/>
		<stop  offset="0.343" style="stop-color:#D9659B"/>
		<stop  offset="0.616" style="stop-color:#B070BF"/>
		<stop  offset="0.934" style="stop-color:#777FF0"/>
		<stop  offset="1" style="stop-color:#6A82FB"/>
	</linearGradient>
	<path style="fill:url(#SVGID_9_);" d="M170.344,306.344L160,316.688l-10.344-10.344l-11.312,11.312L148.688,328l-10.344,10.344
		l11.312,11.312L160,339.312l10.344,10.344l11.312-11.312L171.312,328l10.344-10.344L170.344,306.344z"/>
	
		<linearGradient id="SVGID_10_" gradientUnits="userSpaceOnUse" x1="-26.875" y1="618.923" x2="-26.875" y2="556.355" gradientTransform="matrix(8 0 0 -8 454.9998 4941)">
		<stop  offset="0" style="stop-color:#FC5C7D"/>
		<stop  offset="0.129" style="stop-color:#F35E85"/>
		<stop  offset="0.343" style="stop-color:#D9659B"/>
		<stop  offset="0.616" style="stop-color:#B070BF"/>
		<stop  offset="0.934" style="stop-color:#777FF0"/>
		<stop  offset="1" style="stop-color:#6A82FB"/>
	</linearGradient>
	<path style="fill:url(#SVGID_10_);" d="M250.344,306.344L240,316.688l-10.344-10.344l-11.312,11.312L228.688,328l-10.344,10.344
		l11.312,11.312L240,339.312l10.344,10.344l11.312-11.312L251.312,328l10.344-10.344L250.344,306.344z"/>
	
		<linearGradient id="SVGID_11_" gradientUnits="userSpaceOnUse" x1="-16.875" y1="618.923" x2="-16.875" y2="556.355" gradientTransform="matrix(8 0 0 -8 454.9998 4941)">
		<stop  offset="0" style="stop-color:#FC5C7D"/>
		<stop  offset="0.129" style="stop-color:#F35E85"/>
		<stop  offset="0.343" style="stop-color:#D9659B"/>
		<stop  offset="0.616" style="stop-color:#B070BF"/>
		<stop  offset="0.934" style="stop-color:#777FF0"/>
		<stop  offset="1" style="stop-color:#6A82FB"/>
	</linearGradient>
	<path style="fill:url(#SVGID_11_);" d="M330.344,306.344L320,316.688l-10.344-10.344l-11.312,11.312L308.688,328l-10.344,10.344
		l11.312,11.312L320,339.312l10.344,10.344l11.312-11.312L331.312,328l10.344-10.344L330.344,306.344z"/>
	
		<linearGradient id="SVGID_12_" gradientUnits="userSpaceOnUse" x1="-6.875" y1="618.923" x2="-6.875" y2="556.355" gradientTransform="matrix(8 0 0 -8 454.9998 4941)">
		<stop  offset="0" style="stop-color:#FC5C7D"/>
		<stop  offset="0.129" style="stop-color:#F35E85"/>
		<stop  offset="0.343" style="stop-color:#D9659B"/>
		<stop  offset="0.616" style="stop-color:#B070BF"/>
		<stop  offset="0.934" style="stop-color:#777FF0"/>
		<stop  offset="1" style="stop-color:#6A82FB"/>
	</linearGradient>
	<path style="fill:url(#SVGID_12_);" d="M410.344,306.344L400,316.688l-10.344-10.344l-11.312,11.312L388.688,328l-10.344,10.344
		l11.312,11.312L400,339.312l10.344,10.344l11.312-11.312L411.312,328l10.344-10.344L410.344,306.344z"/>
	
		<linearGradient id="SVGID_13_" gradientUnits="userSpaceOnUse" x1="-36.875" y1="618.923" x2="-36.875" y2="556.355" gradientTransform="matrix(8 0 0 -8 454.9998 4941)">
		<stop  offset="0" style="stop-color:#FC5C7D"/>
		<stop  offset="0.129" style="stop-color:#F35E85"/>
		<stop  offset="0.343" style="stop-color:#D9659B"/>
		<stop  offset="0.616" style="stop-color:#B070BF"/>
		<stop  offset="0.934" style="stop-color:#777FF0"/>
		<stop  offset="1" style="stop-color:#6A82FB"/>
	</linearGradient>
	<path style="fill:url(#SVGID_13_);" d="M170.344,386.344L160,396.688l-10.344-10.344l-11.312,11.312L148.688,408l-10.344,10.344
		l11.312,11.312L160,419.312l10.344,10.344l11.312-11.312L171.312,408l10.344-10.344L170.344,386.344z"/>
	
		<linearGradient id="SVGID_14_" gradientUnits="userSpaceOnUse" x1="-26.875" y1="618.923" x2="-26.875" y2="556.355" gradientTransform="matrix(8 0 0 -8 454.9998 4941)">
		<stop  offset="0" style="stop-color:#FC5C7D"/>
		<stop  offset="0.129" style="stop-color:#F35E85"/>
		<stop  offset="0.343" style="stop-color:#D9659B"/>
		<stop  offset="0.616" style="stop-color:#B070BF"/>
		<stop  offset="0.934" style="stop-color:#777FF0"/>
		<stop  offset="1" style="stop-color:#6A82FB"/>
	</linearGradient>
	<path style="fill:url(#SVGID_14_);" d="M250.344,386.344L240,396.688l-10.344-10.344l-11.312,11.312L228.688,408l-10.344,10.344
		l11.312,11.312L240,419.312l10.344,10.344l11.312-11.312L251.312,408l10.344-10.344L250.344,386.344z"/>
	
		<linearGradient id="SVGID_15_" gradientUnits="userSpaceOnUse" x1="-16.875" y1="618.923" x2="-16.875" y2="556.355" gradientTransform="matrix(8 0 0 -8 454.9998 4941)">
		<stop  offset="0" style="stop-color:#FC5C7D"/>
		<stop  offset="0.129" style="stop-color:#F35E85"/>
		<stop  offset="0.343" style="stop-color:#D9659B"/>
		<stop  offset="0.616" style="stop-color:#B070BF"/>
		<stop  offset="0.934" style="stop-color:#777FF0"/>
		<stop  offset="1" style="stop-color:#6A82FB"/>
	</linearGradient>
	<path style="fill:url(#SVGID_15_);" d="M330.344,386.344L320,396.688l-10.344-10.344l-11.312,11.312L308.688,408l-10.344,10.344
		l11.312,11.312L320,419.312l10.344,10.344l11.312-11.312L331.312,408l10.344-10.344L330.344,386.344z"/>
	
		<linearGradient id="SVGID_16_" gradientUnits="userSpaceOnUse" x1="-6.875" y1="618.923" x2="-6.875" y2="556.355" gradientTransform="matrix(8 0 0 -8 454.9998 4941)">
		<stop  offset="0" style="stop-color:#FC5C7D"/>
		<stop  offset="0.129" style="stop-color:#F35E85"/>
		<stop  offset="0.343" style="stop-color:#D9659B"/>
		<stop  offset="0.616" style="stop-color:#B070BF"/>
		<stop  offset="0.934" style="stop-color:#777FF0"/>
		<stop  offset="1" style="stop-color:#6A82FB"/>
	</linearGradient>
	<path style="fill:url(#SVGID_16_);" d="M410.344,386.344L400,396.688l-10.344-10.344l-11.312,11.312L388.688,408l-10.344,10.344
		l11.312,11.312L400,419.312l10.344,10.344l11.312-11.312L411.312,408l10.344-10.344L410.344,386.344z"/>
	
		<linearGradient id="SVGID_17_" gradientUnits="userSpaceOnUse" x1="-16.875" y1="618.923" x2="-16.875" y2="556.355" gradientTransform="matrix(8 0 0 -8 454.9998 4941)">
		<stop  offset="0" style="stop-color:#FC5C7D"/>
		<stop  offset="0.129" style="stop-color:#F35E85"/>
		<stop  offset="0.343" style="stop-color:#D9659B"/>
		<stop  offset="0.616" style="stop-color:#B070BF"/>
		<stop  offset="0.934" style="stop-color:#777FF0"/>
		<stop  offset="1" style="stop-color:#6A82FB"/>
	</linearGradient>
	<path style="fill:url(#SVGID_17_);" d="M312,176h16v16h-16V176z"/>
	
		<linearGradient id="SVGID_18_" gradientUnits="userSpaceOnUse" x1="-16.875" y1="618.923" x2="-16.875" y2="556.355" gradientTransform="matrix(8 0 0 -8 454.9998 4941)">
		<stop  offset="0" style="stop-color:#FC5C7D"/>
		<stop  offset="0.129" style="stop-color:#F35E85"/>
		<stop  offset="0.343" style="stop-color:#D9659B"/>
		<stop  offset="0.616" style="stop-color:#B070BF"/>
		<stop  offset="0.934" style="stop-color:#777FF0"/>
		<stop  offset="1" style="stop-color:#6A82FB"/>
	</linearGradient>
	<path style="fill:url(#SVGID_18_);" d="M320,144c-22.08,0.026-39.974,17.92-40,40c0.075,8.457,1.869,16.81,5.272,24.552
		c-3.152,1.123-5.26,4.102-5.272,7.448v48c0,4.418,3.582,8,8,8h64c4.418,0,8-3.582,8-8v-48c-0.012-3.346-2.12-6.325-5.272-7.448
		c3.403-7.742,5.197-16.095,5.272-24.552C359.974,161.92,342.08,144.026,320,144z M320,160c13.255,0,24,10.745,24,24
		c0,20.488-15.8,37.832-24,45.464c-8.2-7.632-24-24.976-24-45.464C296,170.745,306.745,160,320,160z M344,256h-48v-29.288
		c5.536,7.353,11.988,13.969,19.2,19.688c2.844,2.133,6.756,2.133,9.6,0c7.212-5.719,13.664-12.335,19.2-19.688L344,256z"/>
	
		<linearGradient id="SVGID_19_" gradientUnits="userSpaceOnUse" x1="-26.875" y1="618.923" x2="-26.875" y2="556.355" gradientTransform="matrix(8 0 0 -8 454.9998 4941)">
		<stop  offset="0" style="stop-color:#FC5C7D"/>
		<stop  offset="0.129" style="stop-color:#F35E85"/>
		<stop  offset="0.343" style="stop-color:#D9659B"/>
		<stop  offset="0.616" style="stop-color:#B070BF"/>
		<stop  offset="0.934" style="stop-color:#777FF0"/>
		<stop  offset="1" style="stop-color:#6A82FB"/>
	</linearGradient>
	<path style="fill:url(#SVGID_19_);" d="M448,24h-33.136C411.227,9.915,398.547,0.055,384,0h-32
		c-14.547,0.055-27.227,9.915-30.864,24h-34.272C283.227,9.915,270.547,0.055,256,0h-32c-14.547,0.055-27.227,9.915-30.864,24
		h-34.272C155.227,9.915,142.547,0.055,128,0H96C81.453,0.055,68.773,9.915,65.136,24H32C14.327,24,0,38.327,0,56v392
		c0,17.673,14.327,32,32,32h416c17.673,0,32-14.327,32-32V56C480,38.327,465.673,24,448,24L448,24z M352,16h32
		c8.837,0,16,7.163,16,16s-7.163,16-16,16h-32c-8.837,0-16-7.163-16-16S343.163,16,352,16z M224,16h32c8.837,0,16,7.163,16,16
		s-7.163,16-16,16h-32c-8.837,0-16-7.163-16-16S215.163,16,224,16z M96,16h32c8.837,0,16,7.163,16,16s-7.163,16-16,16H96
		c-8.837,0-16-7.163-16-16S87.163,16,96,16z M32,40h33.136C68.773,54.085,81.453,63.945,96,64h32
		c14.547-0.055,27.227-9.915,30.864-24h34.272c3.637,14.085,16.317,23.945,30.864,24h32c14.547-0.055,27.227-9.915,30.864-24h34.272
		c3.637,14.085,16.317,23.945,30.864,24h32c14.547-0.055,27.227-9.915,30.864-24H448c8.837,0,16,7.163,16,16v32H16V56
		C16,47.163,23.164,40,32,40L32,40z M448,464H32c-8.837,0-16-7.163-16-16V104h448v344C464,456.837,456.837,464,448,464z"/>
</g>
<g>
	
		<linearGradient id="SVGID_20_" gradientUnits="userSpaceOnUse" x1="-46.875" y1="618.923" x2="-46.875" y2="556.355" gradientTransform="matrix(8 0 0 -8 454.9998 4941)">
		<stop  offset="0" style="stop-color:#FC5C7D"/>
		<stop  offset="0.129" style="stop-color:#F35E85"/>
		<stop  offset="0.343" style="stop-color:#D9659B"/>
		<stop  offset="0.616" style="stop-color:#B070BF"/>
		<stop  offset="0.934" style="stop-color:#777FF0"/>
		<stop  offset="1" style="stop-color:#6A82FB"/>
	</linearGradient>
	<path style="fill:url(#SVGID_20_);" d="M72,336h16v16H72V336z"/>
	
		<linearGradient id="SVGID_21_" gradientUnits="userSpaceOnUse" x1="-46.875" y1="618.923" x2="-46.875" y2="556.355" gradientTransform="matrix(8 0 0 -8 454.9998 4941)">
		<stop  offset="0" style="stop-color:#FC5C7D"/>
		<stop  offset="0.129" style="stop-color:#F35E85"/>
		<stop  offset="0.343" style="stop-color:#D9659B"/>
		<stop  offset="0.616" style="stop-color:#B070BF"/>
		<stop  offset="0.934" style="stop-color:#777FF0"/>
		<stop  offset="1" style="stop-color:#6A82FB"/>
	</linearGradient>
	<path style="fill:url(#SVGID_21_);" d="M80,304c-22.08,0.026-39.974,17.92-40,40c0.075,8.457,1.869,16.81,5.272,24.552
		c-3.152,1.123-5.26,4.102-5.272,7.448v48c0,4.418,3.582,8,8,8h64c4.418,0,8-3.582,8-8v-48c-0.012-3.346-2.12-6.325-5.272-7.448
		c3.403-7.742,5.197-16.095,5.272-24.552C119.974,321.92,102.08,304.026,80,304z M80,320c13.255,0,24,10.745,24,24
		c0,20.488-15.8,37.832-24,45.464c-8.2-7.632-24-24.976-24-45.464C56,330.745,66.745,320,80,320z M104,416H56v-29.288
		c5.536,7.353,11.988,13.969,19.2,19.688c2.844,2.133,6.756,2.133,9.6,0c7.212-5.719,13.664-12.335,19.2-19.688V416z"/>
</g>
<g>
</g>
<g>
</g>
<g>
</g>
<g>
</g>
<g>
</g>
<g>
</g>
<g>
</g>
<g>
</g>
<g>
</g>
<g>
</g>
<g>
</g>
<g>
</g>
<g>
</g>
<g>
</g>
<g>
</g>
</svg>
